<?xml version="1.0" encoding="UTF-8"?>
<svg xmlns="http://www.w3.org/2000/svg" xmlns:xlink="http://www.w3.org/1999/xlink" width="385.5118pt" height="120.8422pt" viewBox="0 0 385.5118 120.8422">
<defs>
<g>
<g id="glyph-0-0">
<path d="M 3.84375 0.171875 C 5.90625 0.171875 7.125 -1.0625 7.125 -2.546875 C 7.125 -3.875 6.390625 -4.5625 5.28125 -5.03125 L 4.03125 -5.546875 C 3.28125 -5.859375 2.578125 -6.125 2.578125 -6.828125 C 2.578125 -7.5 3.15625 -7.90625 4.015625 -7.90625 C 4.71875 -7.90625 5.390625 -7.609375 5.984375 -7.140625 L 6.828125 -8.203125 C 6.125 -8.875 5.125 -9.328125 4.015625 -9.328125 C 2.21875 -9.328125 0.9375 -8.203125 0.9375 -6.75 C 0.9375 -5.421875 1.875 -4.6875 2.78125 -4.3125 L 4.046875 -3.765625 C 4.875 -3.421875 5.453125 -3.171875 5.453125 -2.421875 C 5.453125 -1.703125 4.90625 -1.25 3.859375 -1.25 C 2.984375 -1.25 2.078125 -1.609375 1.40625 -2.234375 L 0.53125 -1.171875 C 1.40625 -0.3125 2.5625 0.171875 3.84375 0.171875 Z M 3.84375 0.171875 "/>
</g>
<g id="glyph-0-1">
<path d="M 3.4375 0.140625 C 4 0.140625 4.5 0.015625 4.859375 -0.140625 L 4.5625 -1.28125 C 4.34375 -1.171875 4.09375 -1.140625 3.84375 -1.140625 C 3.1875 -1.140625 2.890625 -1.546875 2.890625 -2.34375 L 2.890625 -5.59375 L 4.640625 -5.59375 L 4.640625 -6.875 L 2.890625 -6.875 L 2.890625 -9.03125 L 1.546875 -9.03125 L 1.34375 -6.875 L 0.28125 -6.796875 L 0.28125 -5.59375 L 1.265625 -5.59375 L 1.265625 -2.34375 C 1.265625 -0.859375 1.84375 0.140625 3.4375 0.140625 Z M 3.4375 0.140625 "/>
</g>
<g id="glyph-0-2">
<path d="M 3.84375 0.171875 C 5.5625 0.171875 7.109375 -1.140625 7.109375 -3.4375 C 7.109375 -5.71875 5.5625 -7.046875 3.84375 -7.046875 C 2.125 -7.046875 0.578125 -5.71875 0.578125 -3.4375 C 0.578125 -1.140625 2.125 0.171875 3.84375 0.171875 Z M 3.84375 -1.140625 C 2.828125 -1.140625 2.21875 -2.0625 2.21875 -3.4375 C 2.21875 -4.8125 2.828125 -5.71875 3.84375 -5.71875 C 4.84375 -5.71875 5.453125 -4.8125 5.453125 -3.4375 C 5.453125 -2.0625 4.84375 -1.140625 3.84375 -1.140625 Z M 3.84375 -1.140625 "/>
</g>
<g id="glyph-0-3">
<path d="M 1.015625 0 L 2.625 0 L 2.625 -4.796875 C 3.203125 -5.359375 3.59375 -5.65625 4.203125 -5.65625 C 4.953125 -5.65625 5.28125 -5.234375 5.28125 -4.109375 L 5.28125 0 L 6.890625 0 L 6.890625 -4.3125 C 6.890625 -6.046875 6.25 -7.046875 4.78125 -7.046875 C 3.84375 -7.046875 3.140625 -6.546875 2.515625 -5.953125 L 2.46875 -5.953125 L 2.359375 -6.875 L 1.015625 -6.875 Z M 1.015625 0 "/>
</g>
<g id="glyph-0-4">
<path d="M 3.78125 -5.765625 C 4.703125 -5.765625 5.15625 -5.15625 5.15625 -4.171875 L 2.21875 -4.171875 C 2.40625 -5.390625 3.109375 -5.765625 3.78125 -5.765625 Z M 3.96875 0.171875 C 4.84375 0.171875 5.6875 -0.109375 6.328125 -0.5625 L 5.765625 -1.59375 C 5.296875 -1.28125 4.765625 -1.125 4.171875 -1.125 C 3.21875 -1.125 2.359375 -1.6875 2.1875 -2.9375 L 6.5 -2.9375 C 6.546875 -3.1875 6.578125 -3.46875 6.578125 -3.78125 C 6.578125 -5.6875 5.625 -7.046875 3.75 -7.046875 C 2.125 -7.046875 0.5625 -5.6875 0.5625 -3.4375 C 0.5625 -1.140625 2.046875 0.171875 3.96875 0.171875 Z M 3.96875 0.171875 "/>
</g>
<g id="glyph-0-5">
</g>
<g id="glyph-0-6">
<path d="M 1.015625 0 L 2.625 0 L 2.625 -6.875 L 1.015625 -6.875 Z M 1.8125 -8.078125 C 2.390625 -8.078125 2.78125 -8.4375 2.78125 -9 C 2.78125 -9.546875 2.390625 -9.90625 1.8125 -9.90625 C 1.25 -9.90625 0.859375 -9.546875 0.859375 -9 C 0.859375 -8.4375 1.25 -8.078125 1.8125 -8.078125 Z M 1.8125 -8.078125 "/>
</g>
<g id="glyph-0-7">
<path d="M 0.46875 0 L 5.859375 0 L 5.859375 -1.28125 L 2.5 -1.28125 L 5.734375 -6.015625 L 5.734375 -6.875 L 0.84375 -6.875 L 0.84375 -5.59375 L 3.71875 -5.59375 L 0.46875 -0.875 Z M 0.46875 0 "/>
</g>
<g id="glyph-0-8">
<path d="M 3.015625 0 L 4.640625 0 L 4.640625 -7.78125 L 7.28125 -7.78125 L 7.28125 -9.15625 L 0.359375 -9.15625 L 0.359375 -7.78125 L 3.015625 -7.78125 Z M 3.015625 0 "/>
</g>
<g id="glyph-0-9">
<path d="M 1.015625 0 L 2.625 0 L 2.625 -4.203125 C 3.046875 -5.234375 3.703125 -5.609375 4.25 -5.609375 C 4.546875 -5.609375 4.703125 -5.59375 4.921875 -5.53125 L 5.25 -6.90625 C 5.046875 -7 4.8125 -7.046875 4.46875 -7.046875 C 3.71875 -7.046875 3 -6.546875 2.515625 -5.65625 L 2.46875 -5.65625 L 2.359375 -6.875 L 1.015625 -6.875 Z M 1.015625 0 "/>
</g>
<g id="glyph-0-10">
<path d="M 2.6875 0.171875 C 3.5 0.171875 4.171875 -0.21875 4.8125 -0.75 L 4.875 -0.75 L 4.984375 0 L 6.3125 0 L 6.3125 -4.0625 C 6.3125 -5.984375 5.453125 -7.046875 3.75 -7.046875 C 2.65625 -7.046875 1.6875 -6.640625 0.921875 -6.15625 L 1.515625 -5.0625 C 2.125 -5.4375 2.765625 -5.71875 3.4375 -5.71875 C 4.375 -5.71875 4.671875 -5.125 4.703125 -4.421875 C 1.875 -4.109375 0.640625 -3.390625 0.640625 -1.84375 C 0.640625 -0.640625 1.484375 0.171875 2.6875 0.171875 Z M 3.1875 -1.140625 C 2.625 -1.140625 2.21875 -1.375 2.21875 -1.953125 C 2.21875 -2.65625 2.828125 -3.078125 4.703125 -3.296875 L 4.703125 -1.84375 C 4.203125 -1.375 3.75 -1.140625 3.1875 -1.140625 Z M 3.1875 -1.140625 "/>
</g>
<g id="glyph-0-11">
<path d="M 1.015625 0 L 2.625 0 L 2.625 -4.796875 C 3.15625 -5.375 3.65625 -5.65625 4.078125 -5.65625 C 4.796875 -5.65625 5.140625 -5.234375 5.140625 -4.109375 L 5.140625 0 L 6.75 0 L 6.75 -4.796875 C 7.28125 -5.375 7.75 -5.65625 8.1875 -5.65625 C 8.90625 -5.65625 9.234375 -5.234375 9.234375 -4.109375 L 9.234375 0 L 10.859375 0 L 10.859375 -4.3125 C 10.859375 -6.046875 10.1875 -7.046875 8.734375 -7.046875 C 7.875 -7.046875 7.1875 -6.515625 6.53125 -5.8125 C 6.203125 -6.578125 5.625 -7.046875 4.625 -7.046875 C 3.765625 -7.046875 3.09375 -6.546875 2.515625 -5.9375 L 2.46875 -5.9375 L 2.359375 -6.875 L 1.015625 -6.875 Z M 1.015625 0 "/>
</g>
<g id="glyph-0-12">
<path d="M 1.15625 0 L 2.78125 0 L 2.78125 -3.578125 L 4.1875 -3.578125 L 6.15625 0 L 7.984375 0 L 5.796875 -3.828125 C 6.890625 -4.203125 7.609375 -5.046875 7.609375 -6.4375 C 7.609375 -8.484375 6.15625 -9.15625 4.25 -9.15625 L 1.15625 -9.15625 Z M 2.78125 -4.875 L 2.78125 -7.859375 L 4.09375 -7.859375 C 5.328125 -7.859375 6.015625 -7.484375 6.015625 -6.4375 C 6.015625 -5.40625 5.328125 -4.875 4.09375 -4.875 Z M 2.78125 -4.875 "/>
</g>
<g id="glyph-0-13">
<path d="M 3.921875 0.171875 C 4.78125 0.171875 5.5625 -0.171875 6.125 -0.703125 L 5.46875 -1.6875 C 5.09375 -1.359375 4.609375 -1.140625 4.078125 -1.140625 C 2.984375 -1.140625 2.21875 -2.0625 2.21875 -3.4375 C 2.21875 -4.8125 3.015625 -5.71875 4.109375 -5.71875 C 4.59375 -5.71875 4.953125 -5.546875 5.265625 -5.28125 L 6.03125 -6.265625 C 5.546875 -6.734375 4.90625 -7.046875 4.015625 -7.046875 C 2.1875 -7.046875 0.578125 -5.71875 0.578125 -3.4375 C 0.578125 -1.140625 2.015625 0.171875 3.921875 0.171875 Z M 3.921875 0.171875 "/>
</g>
<g id="glyph-0-14">
<path d="M 2.5625 0 L 4.421875 0 L 6.765625 -6.875 L 5.203125 -6.875 L 4.109375 -3.296875 C 3.921875 -2.625 3.71875 -1.9375 3.53125 -1.234375 L 3.46875 -1.234375 C 3.296875 -1.9375 3.078125 -2.625 2.890625 -3.296875 L 1.8125 -6.875 L 0.171875 -6.875 Z M 2.5625 0 "/>
</g>
<g id="glyph-0-15">
<path d="M 1.484375 2.828125 C 2.984375 2.828125 3.703125 1.859375 4.265625 0.3125 L 6.765625 -6.875 L 5.203125 -6.875 L 4.171875 -3.5 C 4 -2.890625 3.828125 -2.203125 3.65625 -1.5625 L 3.59375 -1.5625 C 3.390625 -2.21875 3.1875 -2.890625 3 -3.5 L 1.8125 -6.875 L 0.171875 -6.875 L 2.875 -0.078125 L 2.75 0.34375 C 2.515625 1.03125 2.09375 1.53125 1.375 1.53125 C 1.21875 1.53125 1.078125 1.515625 0.890625 1.453125 L 0.59375 2.65625 C 0.84375 2.765625 1.109375 2.828125 1.484375 2.828125 Z M 1.484375 2.828125 "/>
</g>
</g>
</defs>
<path fill="none" stroke-width="0.7" stroke-linecap="round" stroke-linejoin="miter" stroke="rgb(0%, 0%, 0%)" stroke-opacity="1" stroke-miterlimit="4" d="M 87.767378 -0.0014375 L 0.0017525 35.877469 " transform="matrix(1, 0, 0, 1, 60.47481, 41.1655)"/>
<path fill-rule="nonzero" fill="rgb(0%, 0%, 0%)" fill-opacity="1" d="M 64.710938 72.722656 L 59.527344 77.429688 L 66.523438 77.15625 "/>
<path fill="none" stroke-width="0.7" stroke-linecap="round" stroke-linejoin="miter" stroke="rgb(0%, 0%, 0%)" stroke-opacity="1" stroke-miterlimit="4" d="M 0.00078125 -0.0014375 L 87.766406 35.877469 " transform="matrix(1, 0, 0, 1, 237.26875, 41.1655)"/>
<path fill-rule="nonzero" fill="rgb(0%, 0%, 0%)" fill-opacity="1" d="M 318.988281 77.15625 L 325.984375 77.429688 L 320.800781 72.722656 "/>
<path fill="none" stroke-width="0.7" stroke-linecap="round" stroke-linejoin="miter" stroke="rgb(0%, 0%, 0%)" stroke-opacity="1" stroke-miterlimit="4" d="M 0.0009225 0.00180925 L 174.723579 0.00180925 " transform="matrix(1, 0, 0, 1, 104.88189, 92.048972)"/>
<path fill-rule="nonzero" fill="rgb(0%, 0%, 0%)" fill-opacity="1" d="M 274.050781 94.441406 L 280.628906 92.050781 L 274.050781 89.65625 "/>
<path fill="none" stroke-width="0.8" stroke-linecap="butt" stroke-linejoin="miter" stroke="rgb(0%, 0%, 0%)" stroke-opacity="1" stroke-miterlimit="4" d="M 5.000764 -0.001349 C 2.242951 -0.001349 0.00076375 2.240838 0.00076375 4.998651 L 0.00076375 24.240838 C 0.00076375 26.998651 2.242951 29.240838 5.000764 29.240838 L 85.707795 29.240838 C 88.469514 29.240838 90.707795 26.998651 90.707795 24.240838 L 90.707795 4.998651 C 90.707795 2.240838 88.469514 -0.001349 85.707795 -0.001349 Z M 5.000764 -0.001349 " transform="matrix(1, 0, 0, 1, 147.40158, 14.173224)"/>
<g fill="rgb(6.274414%, 47.058105%, 58.432007%)" fill-opacity="1">
<use xlink:href="#glyph-0-0" x="161.7669" y="33.41323"/>
</g>
<g fill="rgb(6.274414%, 47.058105%, 58.432007%)" fill-opacity="1">
<use xlink:href="#glyph-0-1" x="169.0329" y="33.41323"/>
</g>
<g fill="rgb(6.274414%, 47.058105%, 58.432007%)" fill-opacity="1">
<use xlink:href="#glyph-0-2" x="173.8629" y="33.41323"/>
<use xlink:href="#glyph-0-3" x="181.5489" y="33.41323"/>
<use xlink:href="#glyph-0-4" x="189.3889" y="33.41323"/>
<use xlink:href="#glyph-0-5" x="196.4869" y="33.41323"/>
<use xlink:href="#glyph-0-0" x="199.2869" y="33.41323"/>
<use xlink:href="#glyph-0-6" x="206.9169" y="33.41323"/>
<use xlink:href="#glyph-0-7" x="210.5849" y="33.41323"/>
</g>
<g fill="rgb(6.274414%, 47.058105%, 58.432007%)" fill-opacity="1">
<use xlink:href="#glyph-0-4" x="216.6469" y="33.41323"/>
</g>
<path fill="none" stroke-width="0.8" stroke-linecap="butt" stroke-linejoin="miter" stroke="rgb(0%, 0%, 0%)" stroke-opacity="1" stroke-miterlimit="4" d="M 4.998647 0.0007105 C 2.240835 0.0007105 -0.001353 2.242898 -0.001353 5.00071 L -0.001353 24.238992 C -0.001353 27.00071 2.240835 29.238992 4.998647 29.238992 L 85.709585 29.238992 C 88.467397 29.238992 90.709585 27.00071 90.709585 24.238992 L 90.709585 5.00071 C 90.709585 2.242898 88.467397 0.0007105 85.709585 0.0007105 Z M 4.998647 0.0007105 " transform="matrix(1, 0, 0, 1, 14.173228, 77.428977)"/>
<g fill="rgb(6.274414%, 47.058105%, 58.432007%)" fill-opacity="1">
<use xlink:href="#glyph-0-8" x="28.083559" y="96.668975"/>
</g>
<g fill="rgb(6.274414%, 47.058105%, 58.432007%)" fill-opacity="1">
<use xlink:href="#glyph-0-9" x="35.111559" y="96.668975"/>
</g>
<g fill="rgb(6.274414%, 47.058105%, 58.432007%)" fill-opacity="1">
<use xlink:href="#glyph-0-4" x="40.193559" y="96.668975"/>
</g>
<g fill="rgb(6.274414%, 47.058105%, 58.432007%)" fill-opacity="1">
<use xlink:href="#glyph-0-10" x="47.123559" y="96.668975"/>
</g>
<g fill="rgb(6.274414%, 47.058105%, 58.432007%)" fill-opacity="1">
<use xlink:href="#glyph-0-1" x="54.123559" y="96.668975"/>
<use xlink:href="#glyph-0-11" x="59.177559" y="96.668975"/>
<use xlink:href="#glyph-0-4" x="70.979559" y="96.668975"/>
<use xlink:href="#glyph-0-3" x="78.077559" y="96.668975"/>
<use xlink:href="#glyph-0-1" x="85.917559" y="96.668975"/>
</g>
<path fill="none" stroke-width="0.8" stroke-linecap="butt" stroke-linejoin="miter" stroke="rgb(0%, 0%, 0%)" stroke-opacity="1" stroke-miterlimit="4" d="M 4.999006 0.0007105 C 2.241194 0.0007105 -0.00099375 2.242898 -0.00099375 5.00071 L -0.00099375 24.238992 C -0.00099375 27.00071 2.241194 29.238992 4.999006 29.238992 L 85.709944 29.238992 C 88.467756 29.238992 90.709944 27.00071 90.709944 24.238992 L 90.709944 5.00071 C 90.709944 2.242898 88.467756 0.0007105 85.709944 0.0007105 Z M 4.999006 0.0007105 " transform="matrix(1, 0, 0, 1, 280.6299, 77.428977)"/>
<g fill="rgb(6.274414%, 47.058105%, 58.432007%)" fill-opacity="1">
<use xlink:href="#glyph-0-12" x="298.33426" y="96.668975"/>
</g>
<g fill="rgb(6.274414%, 47.058105%, 58.432007%)" fill-opacity="1">
<use xlink:href="#glyph-0-4" x="306.48226" y="96.668975"/>
<use xlink:href="#glyph-0-13" x="313.58026" y="96.668975"/>
</g>
<g fill="rgb(6.274414%, 47.058105%, 58.432007%)" fill-opacity="1">
<use xlink:href="#glyph-0-2" x="319.71226" y="96.668975"/>
</g>
<g fill="rgb(6.274414%, 47.058105%, 58.432007%)" fill-opacity="1">
<use xlink:href="#glyph-0-14" x="327.31426" y="96.668975"/>
</g>
<g fill="rgb(6.274414%, 47.058105%, 58.432007%)" fill-opacity="1">
<use xlink:href="#glyph-0-4" x="334.16026" y="96.668975"/>
<use xlink:href="#glyph-0-9" x="341.258261" y="96.668975"/>
</g>
<g fill="rgb(6.274414%, 47.058105%, 58.432007%)" fill-opacity="1">
<use xlink:href="#glyph-0-15" x="346.704261" y="96.668975"/>
</g>
</svg>
